<?xml version="1.0" encoding="utf-8"?>
<svg xmlns="http://www.w3.org/2000/svg" xmlns:xlink="http://www.w3.org/1999/xlink" xml:space="preserve" width="924" height="924" viewBox="0 0 924 924"><rect width="924" height="924" fill="#ffffff" x="0" y="0"/><g fill="#000000">
<g transform="translate(280,56) scale(4.8066666666667)"><rect width="6" height="6"/></g>
<g transform="translate(308,56) scale(4.8066666666667)"><rect width="6" height="6"/></g>
<g transform="translate(364,56) scale(4.8066666666667)"><rect width="6" height="6"/></g>
<g transform="translate(392,56) scale(4.8066666666667)"><rect width="6" height="6"/></g>
<g transform="translate(420,56) scale(4.8066666666667)"><rect width="6" height="6"/></g>
<g transform="translate(476,56) scale(4.8066666666667)"><rect width="6" height="6"/></g>
<g transform="translate(504,56) scale(4.8066666666667)"><rect width="6" height="6"/></g>
<g transform="translate(336,84) scale(4.8066666666667)"><rect width="6" height="6"/></g>
<g transform="translate(448,84) scale(4.8066666666667)"><rect width="6" height="6"/></g>
<g transform="translate(504,84) scale(4.8066666666667)"><rect width="6" height="6"/></g>
<g transform="translate(560,84) scale(4.8066666666667)"><rect width="6" height="6"/></g>
<g transform="translate(616,84) scale(4.8066666666667)"><rect width="6" height="6"/></g>
<g transform="translate(336,112) scale(4.8066666666667)"><rect width="6" height="6"/></g>
<g transform="translate(364,112) scale(4.8066666666667)"><rect width="6" height="6"/></g>
<g transform="translate(392,112) scale(4.8066666666667)"><rect width="6" height="6"/></g>
<g transform="translate(420,112) scale(4.8066666666667)"><rect width="6" height="6"/></g>
<g transform="translate(476,112) scale(4.8066666666667)"><rect width="6" height="6"/></g>
<g transform="translate(532,112) scale(4.8066666666667)"><rect width="6" height="6"/></g>
<g transform="translate(560,112) scale(4.8066666666667)"><rect width="6" height="6"/></g>
<g transform="translate(336,140) scale(4.8066666666667)"><rect width="6" height="6"/></g>
<g transform="translate(364,140) scale(4.8066666666667)"><rect width="6" height="6"/></g>
<g transform="translate(476,140) scale(4.8066666666667)"><rect width="6" height="6"/></g>
<g transform="translate(532,140) scale(4.8066666666667)"><rect width="6" height="6"/></g>
<g transform="translate(560,140) scale(4.8066666666667)"><rect width="6" height="6"/></g>
<g transform="translate(616,140) scale(4.8066666666667)"><rect width="6" height="6"/></g>
<g transform="translate(280,168) scale(4.8066666666667)"><rect width="6" height="6"/></g>
<g transform="translate(336,168) scale(4.8066666666667)"><rect width="6" height="6"/></g>
<g transform="translate(420,168) scale(4.8066666666667)"><rect width="6" height="6"/></g>
<g transform="translate(504,168) scale(4.8066666666667)"><rect width="6" height="6"/></g>
<g transform="translate(532,168) scale(4.8066666666667)"><rect width="6" height="6"/></g>
<g transform="translate(616,168) scale(4.8066666666667)"><rect width="6" height="6"/></g>
<g transform="translate(280,196) scale(4.8066666666667)"><rect width="6" height="6"/></g>
<g transform="translate(336,196) scale(4.8066666666667)"><rect width="6" height="6"/></g>
<g transform="translate(420,196) scale(4.8066666666667)"><rect width="6" height="6"/></g>
<g transform="translate(476,196) scale(4.8066666666667)"><rect width="6" height="6"/></g>
<g transform="translate(504,196) scale(4.8066666666667)"><rect width="6" height="6"/></g>
<g transform="translate(532,196) scale(4.8066666666667)"><rect width="6" height="6"/></g>
<g transform="translate(588,196) scale(4.8066666666667)"><rect width="6" height="6"/></g>
<g transform="translate(280,224) scale(4.8066666666667)"><rect width="6" height="6"/></g>
<g transform="translate(336,224) scale(4.8066666666667)"><rect width="6" height="6"/></g>
<g transform="translate(392,224) scale(4.8066666666667)"><rect width="6" height="6"/></g>
<g transform="translate(448,224) scale(4.8066666666667)"><rect width="6" height="6"/></g>
<g transform="translate(504,224) scale(4.8066666666667)"><rect width="6" height="6"/></g>
<g transform="translate(560,224) scale(4.8066666666667)"><rect width="6" height="6"/></g>
<g transform="translate(616,224) scale(4.8066666666667)"><rect width="6" height="6"/></g>
<g transform="translate(364,252) scale(4.8066666666667)"><rect width="6" height="6"/></g>
<g transform="translate(392,252) scale(4.8066666666667)"><rect width="6" height="6"/></g>
<g transform="translate(420,252) scale(4.8066666666667)"><rect width="6" height="6"/></g>
<g transform="translate(476,252) scale(4.8066666666667)"><rect width="6" height="6"/></g>
<g transform="translate(532,252) scale(4.8066666666667)"><rect width="6" height="6"/></g>
<g transform="translate(560,252) scale(4.8066666666667)"><rect width="6" height="6"/></g>
<g transform="translate(588,252) scale(4.8066666666667)"><rect width="6" height="6"/></g>
<g transform="translate(84,280) scale(4.8066666666667)"><rect width="6" height="6"/></g>
<g transform="translate(112,280) scale(4.8066666666667)"><rect width="6" height="6"/></g>
<g transform="translate(140,280) scale(4.8066666666667)"><rect width="6" height="6"/></g>
<g transform="translate(168,280) scale(4.8066666666667)"><rect width="6" height="6"/></g>
<g transform="translate(196,280) scale(4.8066666666667)"><rect width="6" height="6"/></g>
<g transform="translate(224,280) scale(4.8066666666667)"><rect width="6" height="6"/></g>
<g transform="translate(252,280) scale(4.8066666666667)"><rect width="6" height="6"/></g>
<g transform="translate(364,280) scale(4.8066666666667)"><rect width="6" height="6"/></g>
<g transform="translate(392,280) scale(4.8066666666667)"><rect width="6" height="6"/></g>
<g transform="translate(448,280) scale(4.8066666666667)"><rect width="6" height="6"/></g>
<g transform="translate(700,280) scale(4.8066666666667)"><rect width="6" height="6"/></g>
<g transform="translate(728,280) scale(4.8066666666667)"><rect width="6" height="6"/></g>
<g transform="translate(840,280) scale(4.8066666666667)"><rect width="6" height="6"/></g>
<g transform="translate(56,308) scale(4.8066666666667)"><rect width="6" height="6"/></g>
<g transform="translate(84,308) scale(4.8066666666667)"><rect width="6" height="6"/></g>
<g transform="translate(112,308) scale(4.8066666666667)"><rect width="6" height="6"/></g>
<g transform="translate(168,308) scale(4.8066666666667)"><rect width="6" height="6"/></g>
<g transform="translate(196,308) scale(4.8066666666667)"><rect width="6" height="6"/></g>
<g transform="translate(252,308) scale(4.8066666666667)"><rect width="6" height="6"/></g>
<g transform="translate(280,308) scale(4.8066666666667)"><rect width="6" height="6"/></g>
<g transform="translate(336,308) scale(4.8066666666667)"><rect width="6" height="6"/></g>
<g transform="translate(392,308) scale(4.8066666666667)"><rect width="6" height="6"/></g>
<g transform="translate(448,308) scale(4.8066666666667)"><rect width="6" height="6"/></g>
<g transform="translate(476,308) scale(4.8066666666667)"><rect width="6" height="6"/></g>
<g transform="translate(504,308) scale(4.8066666666667)"><rect width="6" height="6"/></g>
<g transform="translate(532,308) scale(4.8066666666667)"><rect width="6" height="6"/></g>
<g transform="translate(560,308) scale(4.8066666666667)"><rect width="6" height="6"/></g>
<g transform="translate(616,308) scale(4.8066666666667)"><rect width="6" height="6"/></g>
<g transform="translate(644,308) scale(4.8066666666667)"><rect width="6" height="6"/></g>
<g transform="translate(700,308) scale(4.8066666666667)"><rect width="6" height="6"/></g>
<g transform="translate(840,308) scale(4.8066666666667)"><rect width="6" height="6"/></g>
<g transform="translate(84,336) scale(4.8066666666667)"><rect width="6" height="6"/></g>
<g transform="translate(112,336) scale(4.8066666666667)"><rect width="6" height="6"/></g>
<g transform="translate(140,336) scale(4.8066666666667)"><rect width="6" height="6"/></g>
<g transform="translate(168,336) scale(4.8066666666667)"><rect width="6" height="6"/></g>
<g transform="translate(224,336) scale(4.8066666666667)"><rect width="6" height="6"/></g>
<g transform="translate(280,336) scale(4.8066666666667)"><rect width="6" height="6"/></g>
<g transform="translate(308,336) scale(4.8066666666667)"><rect width="6" height="6"/></g>
<g transform="translate(336,336) scale(4.8066666666667)"><rect width="6" height="6"/></g>
<g transform="translate(448,336) scale(4.8066666666667)"><rect width="6" height="6"/></g>
<g transform="translate(588,336) scale(4.8066666666667)"><rect width="6" height="6"/></g>
<g transform="translate(644,336) scale(4.8066666666667)"><rect width="6" height="6"/></g>
<g transform="translate(672,336) scale(4.8066666666667)"><rect width="6" height="6"/></g>
<g transform="translate(756,336) scale(4.8066666666667)"><rect width="6" height="6"/></g>
<g transform="translate(112,364) scale(4.8066666666667)"><rect width="6" height="6"/></g>
<g transform="translate(140,364) scale(4.8066666666667)"><rect width="6" height="6"/></g>
<g transform="translate(196,364) scale(4.8066666666667)"><rect width="6" height="6"/></g>
<g transform="translate(336,364) scale(4.8066666666667)"><rect width="6" height="6"/></g>
<g transform="translate(476,364) scale(4.8066666666667)"><rect width="6" height="6"/></g>
<g transform="translate(504,364) scale(4.8066666666667)"><rect width="6" height="6"/></g>
<g transform="translate(532,364) scale(4.8066666666667)"><rect width="6" height="6"/></g>
<g transform="translate(560,364) scale(4.8066666666667)"><rect width="6" height="6"/></g>
<g transform="translate(588,364) scale(4.8066666666667)"><rect width="6" height="6"/></g>
<g transform="translate(616,364) scale(4.8066666666667)"><rect width="6" height="6"/></g>
<g transform="translate(644,364) scale(4.8066666666667)"><rect width="6" height="6"/></g>
<g transform="translate(672,364) scale(4.8066666666667)"><rect width="6" height="6"/></g>
<g transform="translate(700,364) scale(4.8066666666667)"><rect width="6" height="6"/></g>
<g transform="translate(784,364) scale(4.8066666666667)"><rect width="6" height="6"/></g>
<g transform="translate(812,364) scale(4.8066666666667)"><rect width="6" height="6"/></g>
<g transform="translate(56,392) scale(4.8066666666667)"><rect width="6" height="6"/></g>
<g transform="translate(112,392) scale(4.8066666666667)"><rect width="6" height="6"/></g>
<g transform="translate(140,392) scale(4.8066666666667)"><rect width="6" height="6"/></g>
<g transform="translate(168,392) scale(4.8066666666667)"><rect width="6" height="6"/></g>
<g transform="translate(224,392) scale(4.8066666666667)"><rect width="6" height="6"/></g>
<g transform="translate(252,392) scale(4.8066666666667)"><rect width="6" height="6"/></g>
<g transform="translate(280,392) scale(4.8066666666667)"><rect width="6" height="6"/></g>
<g transform="translate(308,392) scale(4.8066666666667)"><rect width="6" height="6"/></g>
<g transform="translate(336,392) scale(4.8066666666667)"><rect width="6" height="6"/></g>
<g transform="translate(364,392) scale(4.8066666666667)"><rect width="6" height="6"/></g>
<g transform="translate(504,392) scale(4.8066666666667)"><rect width="6" height="6"/></g>
<g transform="translate(588,392) scale(4.8066666666667)"><rect width="6" height="6"/></g>
<g transform="translate(644,392) scale(4.8066666666667)"><rect width="6" height="6"/></g>
<g transform="translate(700,392) scale(4.8066666666667)"><rect width="6" height="6"/></g>
<g transform="translate(812,392) scale(4.8066666666667)"><rect width="6" height="6"/></g>
<g transform="translate(840,392) scale(4.8066666666667)"><rect width="6" height="6"/></g>
<g transform="translate(84,420) scale(4.8066666666667)"><rect width="6" height="6"/></g>
<g transform="translate(196,420) scale(4.8066666666667)"><rect width="6" height="6"/></g>
<g transform="translate(308,420) scale(4.8066666666667)"><rect width="6" height="6"/></g>
<g transform="translate(364,420) scale(4.8066666666667)"><rect width="6" height="6"/></g>
<g transform="translate(392,420) scale(4.8066666666667)"><rect width="6" height="6"/></g>
<g transform="translate(420,420) scale(4.8066666666667)"><rect width="6" height="6"/></g>
<g transform="translate(448,420) scale(4.8066666666667)"><rect width="6" height="6"/></g>
<g transform="translate(476,420) scale(4.8066666666667)"><rect width="6" height="6"/></g>
<g transform="translate(504,420) scale(4.8066666666667)"><rect width="6" height="6"/></g>
<g transform="translate(644,420) scale(4.8066666666667)"><rect width="6" height="6"/></g>
<g transform="translate(672,420) scale(4.8066666666667)"><rect width="6" height="6"/></g>
<g transform="translate(728,420) scale(4.8066666666667)"><rect width="6" height="6"/></g>
<g transform="translate(756,420) scale(4.8066666666667)"><rect width="6" height="6"/></g>
<g transform="translate(84,448) scale(4.8066666666667)"><rect width="6" height="6"/></g>
<g transform="translate(112,448) scale(4.8066666666667)"><rect width="6" height="6"/></g>
<g transform="translate(140,448) scale(4.8066666666667)"><rect width="6" height="6"/></g>
<g transform="translate(196,448) scale(4.8066666666667)"><rect width="6" height="6"/></g>
<g transform="translate(224,448) scale(4.8066666666667)"><rect width="6" height="6"/></g>
<g transform="translate(252,448) scale(4.8066666666667)"><rect width="6" height="6"/></g>
<g transform="translate(280,448) scale(4.8066666666667)"><rect width="6" height="6"/></g>
<g transform="translate(308,448) scale(4.8066666666667)"><rect width="6" height="6"/></g>
<g transform="translate(364,448) scale(4.8066666666667)"><rect width="6" height="6"/></g>
<g transform="translate(392,448) scale(4.8066666666667)"><rect width="6" height="6"/></g>
<g transform="translate(448,448) scale(4.8066666666667)"><rect width="6" height="6"/></g>
<g transform="translate(504,448) scale(4.8066666666667)"><rect width="6" height="6"/></g>
<g transform="translate(560,448) scale(4.8066666666667)"><rect width="6" height="6"/></g>
<g transform="translate(588,448) scale(4.8066666666667)"><rect width="6" height="6"/></g>
<g transform="translate(616,448) scale(4.8066666666667)"><rect width="6" height="6"/></g>
<g transform="translate(644,448) scale(4.8066666666667)"><rect width="6" height="6"/></g>
<g transform="translate(700,448) scale(4.8066666666667)"><rect width="6" height="6"/></g>
<g transform="translate(840,448) scale(4.8066666666667)"><rect width="6" height="6"/></g>
<g transform="translate(112,476) scale(4.8066666666667)"><rect width="6" height="6"/></g>
<g transform="translate(168,476) scale(4.8066666666667)"><rect width="6" height="6"/></g>
<g transform="translate(280,476) scale(4.8066666666667)"><rect width="6" height="6"/></g>
<g transform="translate(308,476) scale(4.8066666666667)"><rect width="6" height="6"/></g>
<g transform="translate(448,476) scale(4.8066666666667)"><rect width="6" height="6"/></g>
<g transform="translate(476,476) scale(4.8066666666667)"><rect width="6" height="6"/></g>
<g transform="translate(504,476) scale(4.8066666666667)"><rect width="6" height="6"/></g>
<g transform="translate(728,476) scale(4.8066666666667)"><rect width="6" height="6"/></g>
<g transform="translate(756,476) scale(4.8066666666667)"><rect width="6" height="6"/></g>
<g transform="translate(812,476) scale(4.8066666666667)"><rect width="6" height="6"/></g>
<g transform="translate(840,476) scale(4.8066666666667)"><rect width="6" height="6"/></g>
<g transform="translate(56,504) scale(4.8066666666667)"><rect width="6" height="6"/></g>
<g transform="translate(84,504) scale(4.8066666666667)"><rect width="6" height="6"/></g>
<g transform="translate(168,504) scale(4.8066666666667)"><rect width="6" height="6"/></g>
<g transform="translate(224,504) scale(4.8066666666667)"><rect width="6" height="6"/></g>
<g transform="translate(308,504) scale(4.8066666666667)"><rect width="6" height="6"/></g>
<g transform="translate(336,504) scale(4.8066666666667)"><rect width="6" height="6"/></g>
<g transform="translate(364,504) scale(4.8066666666667)"><rect width="6" height="6"/></g>
<g transform="translate(392,504) scale(4.8066666666667)"><rect width="6" height="6"/></g>
<g transform="translate(448,504) scale(4.8066666666667)"><rect width="6" height="6"/></g>
<g transform="translate(476,504) scale(4.8066666666667)"><rect width="6" height="6"/></g>
<g transform="translate(560,504) scale(4.8066666666667)"><rect width="6" height="6"/></g>
<g transform="translate(616,504) scale(4.8066666666667)"><rect width="6" height="6"/></g>
<g transform="translate(644,504) scale(4.8066666666667)"><rect width="6" height="6"/></g>
<g transform="translate(728,504) scale(4.8066666666667)"><rect width="6" height="6"/></g>
<g transform="translate(756,504) scale(4.8066666666667)"><rect width="6" height="6"/></g>
<g transform="translate(784,504) scale(4.8066666666667)"><rect width="6" height="6"/></g>
<g transform="translate(840,504) scale(4.8066666666667)"><rect width="6" height="6"/></g>
<g transform="translate(56,532) scale(4.8066666666667)"><rect width="6" height="6"/></g>
<g transform="translate(112,532) scale(4.8066666666667)"><rect width="6" height="6"/></g>
<g transform="translate(140,532) scale(4.8066666666667)"><rect width="6" height="6"/></g>
<g transform="translate(280,532) scale(4.8066666666667)"><rect width="6" height="6"/></g>
<g transform="translate(308,532) scale(4.8066666666667)"><rect width="6" height="6"/></g>
<g transform="translate(420,532) scale(4.8066666666667)"><rect width="6" height="6"/></g>
<g transform="translate(476,532) scale(4.8066666666667)"><rect width="6" height="6"/></g>
<g transform="translate(504,532) scale(4.8066666666667)"><rect width="6" height="6"/></g>
<g transform="translate(728,532) scale(4.8066666666667)"><rect width="6" height="6"/></g>
<g transform="translate(812,532) scale(4.8066666666667)"><rect width="6" height="6"/></g>
<g transform="translate(840,532) scale(4.8066666666667)"><rect width="6" height="6"/></g>
<g transform="translate(56,560) scale(4.8066666666667)"><rect width="6" height="6"/></g>
<g transform="translate(140,560) scale(4.8066666666667)"><rect width="6" height="6"/></g>
<g transform="translate(196,560) scale(4.8066666666667)"><rect width="6" height="6"/></g>
<g transform="translate(224,560) scale(4.8066666666667)"><rect width="6" height="6"/></g>
<g transform="translate(280,560) scale(4.8066666666667)"><rect width="6" height="6"/></g>
<g transform="translate(308,560) scale(4.8066666666667)"><rect width="6" height="6"/></g>
<g transform="translate(364,560) scale(4.8066666666667)"><rect width="6" height="6"/></g>
<g transform="translate(392,560) scale(4.8066666666667)"><rect width="6" height="6"/></g>
<g transform="translate(448,560) scale(4.8066666666667)"><rect width="6" height="6"/></g>
<g transform="translate(560,560) scale(4.8066666666667)"><rect width="6" height="6"/></g>
<g transform="translate(616,560) scale(4.8066666666667)"><rect width="6" height="6"/></g>
<g transform="translate(672,560) scale(4.8066666666667)"><rect width="6" height="6"/></g>
<g transform="translate(728,560) scale(4.8066666666667)"><rect width="6" height="6"/></g>
<g transform="translate(56,588) scale(4.8066666666667)"><rect width="6" height="6"/></g>
<g transform="translate(140,588) scale(4.8066666666667)"><rect width="6" height="6"/></g>
<g transform="translate(168,588) scale(4.8066666666667)"><rect width="6" height="6"/></g>
<g transform="translate(252,588) scale(4.8066666666667)"><rect width="6" height="6"/></g>
<g transform="translate(280,588) scale(4.8066666666667)"><rect width="6" height="6"/></g>
<g transform="translate(336,588) scale(4.8066666666667)"><rect width="6" height="6"/></g>
<g transform="translate(420,588) scale(4.8066666666667)"><rect width="6" height="6"/></g>
<g transform="translate(448,588) scale(4.8066666666667)"><rect width="6" height="6"/></g>
<g transform="translate(504,588) scale(4.8066666666667)"><rect width="6" height="6"/></g>
<g transform="translate(532,588) scale(4.8066666666667)"><rect width="6" height="6"/></g>
<g transform="translate(560,588) scale(4.8066666666667)"><rect width="6" height="6"/></g>
<g transform="translate(672,588) scale(4.8066666666667)"><rect width="6" height="6"/></g>
<g transform="translate(700,588) scale(4.8066666666667)"><rect width="6" height="6"/></g>
<g transform="translate(728,588) scale(4.8066666666667)"><rect width="6" height="6"/></g>
<g transform="translate(756,588) scale(4.8066666666667)"><rect width="6" height="6"/></g>
<g transform="translate(784,588) scale(4.8066666666667)"><rect width="6" height="6"/></g>
<g transform="translate(56,616) scale(4.8066666666667)"><rect width="6" height="6"/></g>
<g transform="translate(112,616) scale(4.8066666666667)"><rect width="6" height="6"/></g>
<g transform="translate(140,616) scale(4.8066666666667)"><rect width="6" height="6"/></g>
<g transform="translate(168,616) scale(4.8066666666667)"><rect width="6" height="6"/></g>
<g transform="translate(196,616) scale(4.8066666666667)"><rect width="6" height="6"/></g>
<g transform="translate(224,616) scale(4.8066666666667)"><rect width="6" height="6"/></g>
<g transform="translate(280,616) scale(4.8066666666667)"><rect width="6" height="6"/></g>
<g transform="translate(392,616) scale(4.8066666666667)"><rect width="6" height="6"/></g>
<g transform="translate(504,616) scale(4.8066666666667)"><rect width="6" height="6"/></g>
<g transform="translate(532,616) scale(4.8066666666667)"><rect width="6" height="6"/></g>
<g transform="translate(560,616) scale(4.8066666666667)"><rect width="6" height="6"/></g>
<g transform="translate(616,616) scale(4.8066666666667)"><rect width="6" height="6"/></g>
<g transform="translate(644,616) scale(4.8066666666667)"><rect width="6" height="6"/></g>
<g transform="translate(672,616) scale(4.8066666666667)"><rect width="6" height="6"/></g>
<g transform="translate(700,616) scale(4.8066666666667)"><rect width="6" height="6"/></g>
<g transform="translate(728,616) scale(4.8066666666667)"><rect width="6" height="6"/></g>
<g transform="translate(756,616) scale(4.8066666666667)"><rect width="6" height="6"/></g>
<g transform="translate(280,644) scale(4.8066666666667)"><rect width="6" height="6"/></g>
<g transform="translate(308,644) scale(4.8066666666667)"><rect width="6" height="6"/></g>
<g transform="translate(336,644) scale(4.8066666666667)"><rect width="6" height="6"/></g>
<g transform="translate(364,644) scale(4.8066666666667)"><rect width="6" height="6"/></g>
<g transform="translate(448,644) scale(4.8066666666667)"><rect width="6" height="6"/></g>
<g transform="translate(532,644) scale(4.8066666666667)"><rect width="6" height="6"/></g>
<g transform="translate(588,644) scale(4.8066666666667)"><rect width="6" height="6"/></g>
<g transform="translate(616,644) scale(4.8066666666667)"><rect width="6" height="6"/></g>
<g transform="translate(728,644) scale(4.8066666666667)"><rect width="6" height="6"/></g>
<g transform="translate(756,644) scale(4.8066666666667)"><rect width="6" height="6"/></g>
<g transform="translate(812,644) scale(4.8066666666667)"><rect width="6" height="6"/></g>
<g transform="translate(840,644) scale(4.8066666666667)"><rect width="6" height="6"/></g>
<g transform="translate(280,672) scale(4.8066666666667)"><rect width="6" height="6"/></g>
<g transform="translate(308,672) scale(4.8066666666667)"><rect width="6" height="6"/></g>
<g transform="translate(336,672) scale(4.8066666666667)"><rect width="6" height="6"/></g>
<g transform="translate(392,672) scale(4.8066666666667)"><rect width="6" height="6"/></g>
<g transform="translate(420,672) scale(4.8066666666667)"><rect width="6" height="6"/></g>
<g transform="translate(448,672) scale(4.8066666666667)"><rect width="6" height="6"/></g>
<g transform="translate(532,672) scale(4.8066666666667)"><rect width="6" height="6"/></g>
<g transform="translate(616,672) scale(4.8066666666667)"><rect width="6" height="6"/></g>
<g transform="translate(672,672) scale(4.8066666666667)"><rect width="6" height="6"/></g>
<g transform="translate(728,672) scale(4.8066666666667)"><rect width="6" height="6"/></g>
<g transform="translate(812,672) scale(4.8066666666667)"><rect width="6" height="6"/></g>
<g transform="translate(280,700) scale(4.8066666666667)"><rect width="6" height="6"/></g>
<g transform="translate(308,700) scale(4.8066666666667)"><rect width="6" height="6"/></g>
<g transform="translate(364,700) scale(4.8066666666667)"><rect width="6" height="6"/></g>
<g transform="translate(420,700) scale(4.8066666666667)"><rect width="6" height="6"/></g>
<g transform="translate(448,700) scale(4.8066666666667)"><rect width="6" height="6"/></g>
<g transform="translate(476,700) scale(4.8066666666667)"><rect width="6" height="6"/></g>
<g transform="translate(532,700) scale(4.8066666666667)"><rect width="6" height="6"/></g>
<g transform="translate(560,700) scale(4.8066666666667)"><rect width="6" height="6"/></g>
<g transform="translate(588,700) scale(4.8066666666667)"><rect width="6" height="6"/></g>
<g transform="translate(616,700) scale(4.8066666666667)"><rect width="6" height="6"/></g>
<g transform="translate(728,700) scale(4.8066666666667)"><rect width="6" height="6"/></g>
<g transform="translate(756,700) scale(4.8066666666667)"><rect width="6" height="6"/></g>
<g transform="translate(812,700) scale(4.8066666666667)"><rect width="6" height="6"/></g>
<g transform="translate(840,700) scale(4.8066666666667)"><rect width="6" height="6"/></g>
<g transform="translate(280,728) scale(4.8066666666667)"><rect width="6" height="6"/></g>
<g transform="translate(336,728) scale(4.8066666666667)"><rect width="6" height="6"/></g>
<g transform="translate(392,728) scale(4.8066666666667)"><rect width="6" height="6"/></g>
<g transform="translate(420,728) scale(4.8066666666667)"><rect width="6" height="6"/></g>
<g transform="translate(448,728) scale(4.8066666666667)"><rect width="6" height="6"/></g>
<g transform="translate(476,728) scale(4.8066666666667)"><rect width="6" height="6"/></g>
<g transform="translate(504,728) scale(4.8066666666667)"><rect width="6" height="6"/></g>
<g transform="translate(588,728) scale(4.8066666666667)"><rect width="6" height="6"/></g>
<g transform="translate(616,728) scale(4.8066666666667)"><rect width="6" height="6"/></g>
<g transform="translate(644,728) scale(4.8066666666667)"><rect width="6" height="6"/></g>
<g transform="translate(672,728) scale(4.8066666666667)"><rect width="6" height="6"/></g>
<g transform="translate(700,728) scale(4.8066666666667)"><rect width="6" height="6"/></g>
<g transform="translate(728,728) scale(4.8066666666667)"><rect width="6" height="6"/></g>
<g transform="translate(756,728) scale(4.8066666666667)"><rect width="6" height="6"/></g>
<g transform="translate(784,728) scale(4.8066666666667)"><rect width="6" height="6"/></g>
<g transform="translate(812,728) scale(4.8066666666667)"><rect width="6" height="6"/></g>
<g transform="translate(840,728) scale(4.8066666666667)"><rect width="6" height="6"/></g>
<g transform="translate(280,756) scale(4.8066666666667)"><rect width="6" height="6"/></g>
<g transform="translate(364,756) scale(4.8066666666667)"><rect width="6" height="6"/></g>
<g transform="translate(392,756) scale(4.8066666666667)"><rect width="6" height="6"/></g>
<g transform="translate(476,756) scale(4.8066666666667)"><rect width="6" height="6"/></g>
<g transform="translate(532,756) scale(4.8066666666667)"><rect width="6" height="6"/></g>
<g transform="translate(560,756) scale(4.8066666666667)"><rect width="6" height="6"/></g>
<g transform="translate(588,756) scale(4.8066666666667)"><rect width="6" height="6"/></g>
<g transform="translate(616,756) scale(4.8066666666667)"><rect width="6" height="6"/></g>
<g transform="translate(644,756) scale(4.8066666666667)"><rect width="6" height="6"/></g>
<g transform="translate(700,756) scale(4.8066666666667)"><rect width="6" height="6"/></g>
<g transform="translate(280,784) scale(4.8066666666667)"><rect width="6" height="6"/></g>
<g transform="translate(364,784) scale(4.8066666666667)"><rect width="6" height="6"/></g>
<g transform="translate(392,784) scale(4.8066666666667)"><rect width="6" height="6"/></g>
<g transform="translate(448,784) scale(4.8066666666667)"><rect width="6" height="6"/></g>
<g transform="translate(476,784) scale(4.8066666666667)"><rect width="6" height="6"/></g>
<g transform="translate(504,784) scale(4.8066666666667)"><rect width="6" height="6"/></g>
<g transform="translate(560,784) scale(4.8066666666667)"><rect width="6" height="6"/></g>
<g transform="translate(588,784) scale(4.8066666666667)"><rect width="6" height="6"/></g>
<g transform="translate(616,784) scale(4.8066666666667)"><rect width="6" height="6"/></g>
<g transform="translate(644,784) scale(4.8066666666667)"><rect width="6" height="6"/></g>
<g transform="translate(672,784) scale(4.8066666666667)"><rect width="6" height="6"/></g>
<g transform="translate(700,784) scale(4.8066666666667)"><rect width="6" height="6"/></g>
<g transform="translate(728,784) scale(4.8066666666667)"><rect width="6" height="6"/></g>
<g transform="translate(756,784) scale(4.8066666666667)"><rect width="6" height="6"/></g>
<g transform="translate(812,784) scale(4.8066666666667)"><rect width="6" height="6"/></g>
<g transform="translate(280,812) scale(4.8066666666667)"><rect width="6" height="6"/></g>
<g transform="translate(336,812) scale(4.8066666666667)"><rect width="6" height="6"/></g>
<g transform="translate(364,812) scale(4.8066666666667)"><rect width="6" height="6"/></g>
<g transform="translate(392,812) scale(4.8066666666667)"><rect width="6" height="6"/></g>
<g transform="translate(448,812) scale(4.8066666666667)"><rect width="6" height="6"/></g>
<g transform="translate(476,812) scale(4.8066666666667)"><rect width="6" height="6"/></g>
<g transform="translate(532,812) scale(4.8066666666667)"><rect width="6" height="6"/></g>
<g transform="translate(560,812) scale(4.8066666666667)"><rect width="6" height="6"/></g>
<g transform="translate(672,812) scale(4.8066666666667)"><rect width="6" height="6"/></g>
<g transform="translate(728,812) scale(4.8066666666667)"><rect width="6" height="6"/></g>
<g transform="translate(784,812) scale(4.8066666666667)"><rect width="6" height="6"/></g>
<g transform="translate(812,812) scale(4.8066666666667)"><rect width="6" height="6"/></g>
<g transform="translate(336,840) scale(4.8066666666667)"><rect width="6" height="6"/></g>
<g transform="translate(392,840) scale(4.8066666666667)"><rect width="6" height="6"/></g>
<g transform="translate(420,840) scale(4.8066666666667)"><rect width="6" height="6"/></g>
<g transform="translate(476,840) scale(4.8066666666667)"><rect width="6" height="6"/></g>
<g transform="translate(504,840) scale(4.8066666666667)"><rect width="6" height="6"/></g>
<g transform="translate(588,840) scale(4.8066666666667)"><rect width="6" height="6"/></g>
<g transform="translate(616,840) scale(4.8066666666667)"><rect width="6" height="6"/></g>
<g transform="translate(644,840) scale(4.8066666666667)"><rect width="6" height="6"/></g>
<g transform="translate(672,840) scale(4.8066666666667)"><rect width="6" height="6"/></g>
<g transform="translate(728,840) scale(4.8066666666667)"><rect width="6" height="6"/></g>
<g transform="translate(56,56)"><g transform="scale(14)"><path d="M0,0v14h14V0H0z M12,12H2V2h10V12z"/></g></g>
<g transform="translate(672,56)"><g transform="scale(14)"><path d="M0,0v14h14V0H0z M12,12H2V2h10V12z"/></g></g>
<g transform="translate(56,672)"><g transform="scale(14)"><path d="M0,0v14h14V0H0z M12,12H2V2h10V12z"/></g></g>
<g transform="translate(112,112)"><g transform="scale(14)"><rect width="6" height="6"/></g></g>
<g transform="translate(728,112)"><g transform="scale(14)"><rect width="6" height="6"/></g></g>
<g transform="translate(112,728)"><g transform="scale(14)"><rect width="6" height="6"/></g></g>
</g></svg>
