<svg id="Слой_1" data-name="Слой 1" xmlns="http://www.w3.org/2000/svg" xmlns:xlink="http://www.w3.org/1999/xlink" viewBox="0 0 1100.10007 377.50001">
  <defs>
    <style>
      .cls-1 {
        fill: none;
      }

      .cls-2 {
        clip-path: url(#clip-path);
      }

      .cls-3 {
        fill: url(#Безымянный_градиент);
      }

      .cls-4 {
        clip-path: url(#clip-path-2);
      }

      .cls-5 {
        fill: url(#Безымянный_градиент_2);
      }

      .cls-6 {
        clip-path: url(#clip-path-3);
      }

      .cls-7 {
        fill: url(#Безымянный_градиент_3);
      }

      .cls-8 {
        clip-path: url(#clip-path-4);
      }

      .cls-9 {
        fill: url(#Безымянный_градиент_4);
      }

      .cls-10 {
        clip-path: url(#clip-path-5);
      }

      .cls-11 {
        fill: url(#Безымянный_градиент_5);
      }

      .cls-12 {
        clip-path: url(#clip-path-6);
      }

      .cls-13 {
        fill: url(#Безымянный_градиент_6);
      }

      .cls-14 {
        clip-path: url(#clip-path-7);
      }

      .cls-15 {
        fill: url(#Безымянный_градиент_7);
      }

      .cls-16 {
        fill: #3c3c3b;
      }

      .cls-17 {
        fill: #404040;
      }

      .cls-18 {
        fill: #004e93;
      }
    </style>
    <clipPath id="clip-path" transform="translate(41.9 61.9)">
      <path class="cls-1" d="M109.7,111.7a27.40629,27.40629,0,1,0,20.3-9,27.3476,27.3476,0,0,0-20.3,9"/>
    </clipPath>
    <radialGradient id="Безымянный_градиент" data-name="Безымянный градиент" cx="-1590.03639" cy="-1475.02832" r="0.9309" gradientTransform="translate(65819.08334 61083.72683) scale(41.2921)" gradientUnits="userSpaceOnUse">
      <stop offset="0" stop-color="#4995d1"/>
      <stop offset="1" stop-color="#1f2466"/>
    </radialGradient>
    <clipPath id="clip-path-2" transform="translate(41.9 61.9)">
      <path class="cls-1" d="M51.8,26.1A130.31022,130.31022,0,0,0,10.7,78.4c10.8,2.7,43.1,13.2,58,53.3,4.5-1.5,14.1-7.1,20.8-28.7,9-29,25.9-56.9,48-66.2-13.2-13.1-29-20.1-47-20.1-12-.1-24.9,3-38.7,9.4"/>
    </clipPath>
    <linearGradient id="Безымянный_градиент_2" data-name="Безымянный градиент 2" x1="-1619.32839" y1="-1488.50178" x2="-1618.41115" y2="-1488.50178" gradientTransform="matrix(70.4701, -108.5144, 108.5144, 70.4701, 275726.12983, -70646.64658)" xlink:href="#Безымянный_градиент"/>
    <clipPath id="clip-path-3" transform="translate(41.9 61.9)">
      <path class="cls-1" d="M51.8,26.1c48.1-22.6,85.2-4,107.9,43.1,36.2,6.5,60.7-11.5,70.4-22.2h0A130.13922,130.13922,0,0,0,51.8,26.1"/>
    </clipPath>
    <linearGradient id="Безымянный_градиент_3" data-name="Безымянный градиент 3" x1="-1609.51157" y1="-1497.43302" x2="-1608.59433" y2="-1497.43302" gradientTransform="translate(175949.29042 376041.81369) rotate(21.99999) scale(188.8059)" xlink:href="#Безымянный_градиент"/>
    <clipPath id="clip-path-4" transform="translate(41.9 61.9)">
      <path class="cls-1" d="M79.2,249.6a130.75668,130.75668,0,0,0,65.8,9.5c-3.1-10.7-10.2-44,17.1-76.8-3.5-3.1-13.2-8.7-35.2-3.6-29.6,6.7-62.2,6-81.3-8.4-7.9,29.8,2.2,57.4,33.6,79.3"/>
    </clipPath>
    <linearGradient id="Безымянный_градиент_4" data-name="Безымянный градиент 4" x1="-1626.44698" y1="-1508.161" x2="-1625.52974" y2="-1508.161" gradientTransform="translate(-199728.14197 -205591.47556) rotate(-176.99998) scale(129.38061)" xlink:href="#Безымянный_градиент"/>
    <clipPath id="clip-path-5" transform="translate(41.9 61.9)">
      <path class="cls-1" d="M17.4,195a129.20572,129.20572,0,0,0,61.7,54.6c-43.6-30.4-46-71.8-16.6-115C50.1,100.1,22.2,87.8,8.2,84.7h0A129.89135,129.89135,0,0,0,17.4,195"/>
    </clipPath>
    <linearGradient id="Безымянный_градиент_5" data-name="Безымянный градиент 5" x1="-1623.61305" y1="-1495.24576" x2="-1622.69581" y2="-1495.24576" gradientTransform="matrix(-26.2787, -186.9823, 186.9823, -26.2787, 237009.28077, -342564.29893)" xlink:href="#Безымянный_градиент"/>
    <clipPath id="clip-path-6" transform="translate(41.9 61.9)">
      <path class="cls-1" d="M159.2,76c-1,4.6-.9,15.7,14.5,32.3,20.6,22.2,36.3,50.9,33.4,74.6,29.8-8.2,48.7-30.7,51.9-68.8a130.39672,130.39672,0,0,0-24.7-61.8c-7.7,8.1-33,30.9-75.1,23.7"/>
    </clipPath>
    <linearGradient id="Безымянный_градиент_6" data-name="Безымянный градиент 6" x1="-1605.93029" y1="-1504.44295" x2="-1605.01305" y2="-1504.44295" gradientTransform="translate(-78883.75209 273641.21643) rotate(63) scale(129.38884)" xlink:href="#Безымянный_градиент"/>
    <clipPath id="clip-path-7" transform="translate(41.9 61.9)">
      <path class="cls-1" d="M167.7,186.1c-23.7,28.1-20.4,58.4-16,72.1h0A130.15716,130.15716,0,0,0,259,114.2c-4.5,52.9-39.2,75.7-91.3,71.9"/>
    </clipPath>
    <linearGradient id="Безымянный_градиент_7" data-name="Безымянный градиент 7" x1="-1618.49254" y1="-1508.53106" x2="-1617.57531" y2="-1508.53106" gradientTransform="matrix(-148.7868, 116.245, -116.245, -148.7868, -415854.77338, -36114.16823)" xlink:href="#Безымянный_градиент"/>
  </defs>
  <g class="cls-2">
    <rect class="cls-3" x="141.5" y="164.6" width="60.8" height="57.7"/>
  </g>
  <g class="cls-4">
    <polygon class="cls-5" points="0 159.4 90.1 20.6 231.8 112.6 141.7 251.4 0 159.4"/>
  </g>
  <g class="cls-6">
    <polygon class="cls-7" points="118.7 0 298.3 72.5 247 199.6 67.4 127 118.7 0"/>
  </g>
  <g class="cls-8">
    <polygon class="cls-9" points="203.7 330.1 74.8 323.4 80 225.7 208.8 232.4 203.7 330.1"/>
  </g>
  <g class="cls-10">
    <polygon class="cls-11" points="38.7 323.1 14.3 149.8 119.4 135 143.8 308.3 38.7 323.1"/>
  </g>
  <g class="cls-12">
    <polygon class="cls-13" points="280.2 73.6 353.7 218 220.9 285.7 147.3 141.2 280.2 73.6"/>
  </g>
  <g class="cls-14">
    <polygon class="cls-15" points="374.1 265.5 230.8 377.5 116.1 230.7 259.4 118.7 374.1 265.5"/>
  </g>
  <rect class="cls-16" x="365.10001" y="91.9" width="2.5" height="200"/>
  <path class="cls-17" d="M404.2,113a26.417,26.417,0,0,1-10.4-2,21.37344,21.37344,0,0,1-7.9-5.7,24.6714,24.6714,0,0,1-5-9,36.79571,36.79571,0,0,1-1.7-11.9A36.72524,36.72524,0,0,1,381,72.5a25.03267,25.03267,0,0,1,5.1-8.9,22.56321,22.56321,0,0,1,7.9-5.7,25.63549,25.63549,0,0,1,10.1-2A26.82907,26.82907,0,0,1,415,58a22.17544,22.17544,0,0,1,7.9,5.9,26.03786,26.03786,0,0,1,4.9,9,38.49872,38.49872,0,0,1,1.7,11.5,36.30883,36.30883,0,0,1-1.9,12.4,25.83254,25.83254,0,0,1-5.2,8.9,21.43607,21.43607,0,0,1-7.9,5.4A27.6843,27.6843,0,0,1,404.2,113Zm.7-6.7c5.2,0,9.3-1.8,12.3-5.5s4.5-9.1,4.5-16.4a34.99851,34.99851,0,0,0-1.2-9.8,19.00345,19.00345,0,0,0-3.5-6.8,14.07041,14.07041,0,0,0-5.6-4,21.65593,21.65593,0,0,0-7.4-1.3,17.16375,17.16375,0,0,0-6.8,1.3,15.27435,15.27435,0,0,0-5.5,4,20.86876,20.86876,0,0,0-3.6,6.8,31.2072,31.2072,0,0,0-1.3,9.7,31.41153,31.41153,0,0,0,1.3,9.6,19.27521,19.27521,0,0,0,3.7,6.8,15.40473,15.40473,0,0,0,5.7,4.1A15.80868,15.80868,0,0,0,404.9,106.3Z" transform="translate(41.9 61.9)"/>
  <path class="cls-17" d="M485.3,112.2h-7.1V63.4H452v48.8h-7.1V56.8h40.5v55.4Z" transform="translate(41.9 61.9)"/>
  <path class="cls-17" d="M534.2,112.2h-31V56.8h31v6.7H510.4V80.3h21.8v6.5H510.4v18.8h23.8Z" transform="translate(41.9 61.9)"/>
  <path class="cls-17" d="M557.3,112.2h-7.1V56.8h16.3a31.48019,31.48019,0,0,1,8.5,1,18.67835,18.67835,0,0,1,6.5,3.1,12.987,12.987,0,0,1,4.1,5.4,20.50094,20.50094,0,0,1,1.4,7.8c0,5.8-1.9,10.1-5.6,13.2-3.7,3-8.9,4.6-15.6,4.6h-8.6v20.3Zm0-27.1h8.6c4.4,0,7.8-.9,10.1-2.7s3.4-4.5,3.4-8.2c0-3.8-1.1-6.5-3.4-8.2s-5.7-2.5-10.1-2.5h-8.6Z" transform="translate(41.9 61.9)"/>
  <path class="cls-17" d="M627.4,97.4H603.7l-5.4,14.8h-7.2l21.1-55.4h7.1l20.7,55.4h-7.4ZM606,90.9h19.1l-9.3-26.1h-.3Z" transform="translate(41.9 61.9)"/>
  <path class="cls-17" d="M665.7,112.2h-7.1V63.4H642.2V56.7h39.9v6.7H665.7Z" transform="translate(41.9 61.9)"/>
  <path class="cls-17" d="M715.7,113a26.41718,26.41718,0,0,1-10.4-2,21.374,21.374,0,0,1-7.9-5.7,24.671,24.671,0,0,1-5-9,36.79571,36.79571,0,0,1-1.7-11.9,36.72443,36.72443,0,0,1,1.8-11.9,25.03365,25.03365,0,0,1,5.1-8.9,22.56318,22.56318,0,0,1,7.9-5.7,25.6354,25.6354,0,0,1,10.1-2,26.82944,26.82944,0,0,1,10.9,2.1,22.17616,22.17616,0,0,1,7.9,5.9,26.0389,26.0389,0,0,1,4.9,9A38.49968,38.49968,0,0,1,741,84.4a36.30734,36.30734,0,0,1-1.9,12.4,25.83349,25.83349,0,0,1-5.2,8.9,21.43618,21.43618,0,0,1-7.9,5.4A27.68377,27.68377,0,0,1,715.7,113Zm.7-6.7c5.2,0,9.3-1.8,12.3-5.5s4.5-9.1,4.5-16.4a34.99962,34.99962,0,0,0-1.2-9.8,19.00345,19.00345,0,0,0-3.5-6.8,14.07073,14.07073,0,0,0-5.6-4,21.656,21.656,0,0,0-7.4-1.3,17.16365,17.16365,0,0,0-6.8,1.3,15.27435,15.27435,0,0,0-5.5,4,20.86815,20.86815,0,0,0-3.6,6.8,31.20631,31.20631,0,0,0-1.3,9.7,31.41246,31.41246,0,0,0,1.3,9.6,19.27521,19.27521,0,0,0,3.7,6.8,15.40506,15.40506,0,0,0,5.7,4.1A15.80815,15.80815,0,0,0,716.4,106.3Z" transform="translate(41.9 61.9)"/>
  <path class="cls-17" d="M763.5,112.2h-7.1V56.8h16.3a31.48019,31.48019,0,0,1,8.5,1,18.67835,18.67835,0,0,1,6.5,3.1,12.987,12.987,0,0,1,4.1,5.4,20.50094,20.50094,0,0,1,1.4,7.8c0,5.8-1.9,10.1-5.6,13.2-3.7,3-8.9,4.6-15.6,4.6h-8.6v20.3Zm0-27.1h8.6c4.4,0,7.8-.9,10.1-2.7s3.4-4.5,3.4-8.2c0-3.8-1.1-6.5-3.4-8.2s-5.7-2.5-10.1-2.5h-8.6Z" transform="translate(41.9 61.9)"/>
  <path class="cls-17" d="M846.8,112.2H835V67.7H819.2V56.8h43.3V67.7H846.8Z" transform="translate(41.9 61.9)"/>
  <path class="cls-17" d="M939.2,112.2h-12l-3-36.8-11.4,36.8H901.5L890.3,75.5l-3,36.7h-12l5.5-55.4H895l12.5,41.8,12.4-41.8h13.7Z" transform="translate(41.9 61.9)"/>
  <path class="cls-17" d="M955.4,112.2V71.8h10.8V92.9l-.2,5.6h.1l2.8-4.6,14.7-22.1h10.3v40.4H983V90.7l.3-5.2h-.2L980.4,90l-14.8,22.2Z" transform="translate(41.9 61.9)"/>
  <path class="cls-17" d="M1023.7,80h2.9l17-23.2h13.8l-19.6,24.2a9.40645,9.40645,0,0,1,4.30005,3,37.70029,37.70029,0,0,1,4.1,6.1c1.5,2.6,3.1,5.7,5,9.3,1.9,3.7,4.19995,7.9,7,12.7h-13.6c-1.9-3.3-3.5-6.1-4.7-8.5s-2.3-4.4-3.1-6.1a46.07367,46.07367,0,0,0-2.19995-4.1,10.77436,10.77436,0,0,0-1.80005-2.5,6.25139,6.25139,0,0,0-2-1.3,10.42418,10.42418,0,0,0-2.80005-.4h-4.3v22.9h-11.9V56.8h11.9V80Z" transform="translate(41.9 61.9)"/>
  <path class="cls-18" d="M394.1,206H382.8V153.2H401a35.77944,35.77944,0,0,1,9,1.1,19.47743,19.47743,0,0,1,6.8,3.2,13.74347,13.74347,0,0,1,4.3,5.5,19.19936,19.19936,0,0,1,1.5,7.9,19.53188,19.53188,0,0,1-1.5,7.9,14.2686,14.2686,0,0,1-4.5,5.8,21.14917,21.14917,0,0,1-7.2,3.6,34.766,34.766,0,0,1-9.5,1.2h-5.8Zm-.3-26.5H400a14.11,14.11,0,0,0,8-2,7.0474,7.0474,0,0,0,2.9-6.2c0-3-.9-5.1-2.8-6.3s-4.5-1.8-8-1.8h-6.3v16.3Z" transform="translate(41.9 61.9)"/>
  <path class="cls-18" d="M464.4,206.9a28.73545,28.73545,0,0,1-10.4-1.8,22.998,22.998,0,0,1-8.1-5.2,22.55569,22.55569,0,0,1-5.2-8.6,35.0686,35.0686,0,0,1-1.8-11.7,32.63811,32.63811,0,0,1,1.9-11.7,26.57416,26.57416,0,0,1,5.3-8.6,21.31294,21.31294,0,0,1,8-5.2,27.48756,27.48756,0,0,1,10.1-1.8,28.64478,28.64478,0,0,1,10.9,1.9,23.02986,23.02986,0,0,1,8.1,5.4,22.19747,22.19747,0,0,1,5,8.6,34.128,34.128,0,0,1,1.7,11.4,34.74224,34.74224,0,0,1-1.9,12.2,22.97517,22.97517,0,0,1-5.4,8.5,22.52255,22.52255,0,0,1-8.1,5A32.39743,32.39743,0,0,1,464.4,206.9Zm.4-10a13.2198,13.2198,0,0,0,5.3-1.1,10.65209,10.65209,0,0,0,4.1-3.2,15.1891,15.1891,0,0,0,2.7-5.4,29.07063,29.07063,0,0,0,.9-7.7c0-6-1.3-10.4-3.8-13.2a13.61594,13.61594,0,0,0-15.2-3.1,12.11308,12.11308,0,0,0-4.3,3.2,13.82014,13.82014,0,0,0-2.8,5.4,28.76,28.76,0,0,0,.1,15.4,14.07,14.07,0,0,0,3,5.4,12.46069,12.46069,0,0,0,4.4,3.2A13.64836,13.64836,0,0,0,464.8,196.9Z" transform="translate(41.9 61.9)"/>
  <path class="cls-18" d="M548.2,203.9c-.7.3-1.5.7-2.3,1s-1.8.7-2.9,1a30.82263,30.82263,0,0,1-3.9.7,38.90434,38.90434,0,0,1-5.1.3,34.76821,34.76821,0,0,1-11-1.7,23.67487,23.67487,0,0,1-8.4-5.1,22.97847,22.97847,0,0,1-5.4-8.3,31.1558,31.1558,0,0,1-1.9-11.5,34.3512,34.3512,0,0,1,1.9-12,22.61429,22.61429,0,0,1,14.3-14.2,35.06887,35.06887,0,0,1,11.7-1.8,35.72114,35.72114,0,0,1,7.7.8,30.28655,30.28655,0,0,1,5.5,1.7l-2.5,9.5a20.65185,20.65185,0,0,0-4.9-1.2,40.37888,40.37888,0,0,0-4.3-.4,22.56726,22.56726,0,0,0-7.1,1,14.85387,14.85387,0,0,0-5.5,3.1,14.62338,14.62338,0,0,0-3.6,5.3,19.5084,19.5084,0,0,0-1.3,7.6c0,5.6,1.6,9.8,4.7,12.6s7.4,4.2,12.7,4.2a26.88047,26.88047,0,0,0,4.4-.5,22.1316,22.1316,0,0,0,5-1.5Z" transform="translate(41.9 61.9)"/>
  <path class="cls-18" d="M597.6,191.9H575L569.9,206H563l20.1-52.8h6.8l19.8,52.8h-7.1Zm-20.4-6.2h18.2l-8.8-24.8h-.3Z" transform="translate(41.9 61.9)"/>
  <path class="cls-18" d="M641.3,206h-6.8V159.5H618.9v-6.3h38v6.3h-15.6V206Z" transform="translate(41.9 61.9)"/>
  <path class="cls-18" d="M696,206.7a23.95981,23.95981,0,0,1-9.9-1.9,21.5351,21.5351,0,0,1-7.5-5.4,23.17777,23.17777,0,0,1-4.8-8.6,36.235,36.235,0,0,1-1.7-11.3,36.88435,36.88435,0,0,1,1.7-11.4,25.29886,25.29886,0,0,1,4.9-8.5,22.49848,22.49848,0,0,1,7.5-5.4,23.18356,23.18356,0,0,1,9.6-1.9,26.06458,26.06458,0,0,1,10.4,2,20.01093,20.01093,0,0,1,7.5,5.6,24.503,24.503,0,0,1,4.6,8.6,34.81035,34.81035,0,0,1,1.6,11,35.26521,35.26521,0,0,1-1.8,11.8,24.52762,24.52762,0,0,1-5,8.5,19.28326,19.28326,0,0,1-7.5,5.1A23.15016,23.15016,0,0,1,696,206.7Zm.7-6.3c5,0,8.9-1.7,11.7-5.2s4.3-8.7,4.3-15.6a33.0256,33.0256,0,0,0-1.2-9.4,17.44444,17.44444,0,0,0-3.4-6.5,13.31669,13.31669,0,0,0-5.3-3.8,19.56873,19.56873,0,0,0-7.1-1.2,15.73277,15.73277,0,0,0-6.5,1.3,14.87037,14.87037,0,0,0-5.2,3.8,19.15292,19.15292,0,0,0-3.5,6.5,28.3774,28.3774,0,0,0-1.3,9.2,30.879,30.879,0,0,0,1.2,9.1,17.57552,17.57552,0,0,0,3.5,6.5,14.52573,14.52573,0,0,0,5.5,3.9A17.92465,17.92465,0,0,0,696.7,200.4Z" transform="translate(41.9 61.9)"/>
  <path class="cls-18" d="M793.5,206h-6.8l-3.2-41.3L770.1,206H763l-13.3-41.1L746.4,206h-6.8l4.5-52.8h8.3l14.3,45.4,14-45.4H789Z" transform="translate(41.9 61.9)"/>
</svg>
